<?xml version="1.0" encoding="utf-8"?>
<!-- Generator: Adobe Illustrator 15.1.0, SVG Export Plug-In . SVG Version: 6.00 Build 0)  -->
<!DOCTYPE svg PUBLIC "-//W3C//DTD SVG 1.1//EN" "http://www.w3.org/Graphics/SVG/1.1/DTD/svg11.dtd">
<svg version="1.1" id="Ebene_1" xmlns="http://www.w3.org/2000/svg" xmlns:xlink="http://www.w3.org/1999/xlink" x="0px" y="0px"
	 width="41px" height="35px" viewBox="0 0 41 35" enable-background="new 0 0 41 35" xml:space="preserve">
<g>
	<path fill="#0C0C0C" stroke="#0C0C0C" stroke-width="0.75" d="M17.444,17.943L9.477,29.368 M17.444,17.943l16.513-4.072
		 M17.757,18.279l4.624,7.724 M15.795,16.031L9.01,10.477 M18.425,14.803l3.994-8.297"/>
	<defs>
		<filter id="Adobe_OpacityMaskFilter" filterUnits="userSpaceOnUse" x="5.224" y="26.021" width="7.272" height="7.272">
			<feColorMatrix  type="matrix" values="1 0 0 0 0  0 1 0 0 0  0 0 1 0 0  0 0 0 1 0"/>
		</filter>
	</defs>
	<mask maskUnits="userSpaceOnUse" x="5.224" y="26.021" width="7.272" height="7.272" id="f_1_">
		<g filter="url(#Adobe_OpacityMaskFilter)">
			<polygon id="e_1_" fill="#FFFFFF" points="5.224,26.02 5.224,33.292 12.497,33.292 12.497,26.02 			"/>
		</g>
	</mask>
	<path mask="url(#f_1_)" fill="#0C0C0C" d="M5.234,29.928c-0.151-2.002,1.351-3.746,3.354-3.896
		c2.003-0.153,3.749,1.351,3.898,3.353c0.15,2.003-1.35,3.748-3.353,3.898C7.13,33.434,5.384,31.932,5.234,29.928"/>
	<path fill="#0C0C0C" d="M21.246,26.084c0.07-0.621,0.632-1.064,1.254-0.994c0.621,0.072,1.064,0.635,0.994,1.254
		c-0.074,0.621-0.635,1.065-1.254,0.994C21.619,27.268,21.174,26.705,21.246,26.084 M7.546,11.311
		c-0.391-0.799-0.06-1.765,0.74-2.154c0.799-0.393,1.764-0.061,2.156,0.738c0.39,0.799,0.06,1.766-0.74,2.155
		C8.902,12.441,7.938,12.109,7.546,11.311 M31.367,13.743c-0.092-1.216,0.818-2.274,2.035-2.367c1.216-0.091,2.275,0.82,2.367,2.036
		s-0.819,2.275-2.037,2.367C32.518,15.87,31.458,14.959,31.367,13.743 M21.387,2.338c1.201-0.979,2.973-0.799,3.953,0.403
		s0.799,2.974-0.402,3.954c-1.203,0.979-2.975,0.798-3.954-0.404C20.002,5.088,20.184,3.318,21.387,2.338 M13.79,13.268
		c2.309-1.881,5.709-1.535,7.594,0.773c1.88,2.311,1.534,5.709-0.774,7.594c-2.312,1.881-5.711,1.535-7.592-0.775
		C11.132,18.55,11.481,15.148,13.79,13.268"/>
</g>
</svg>
